<svg xmlns="http://www.w3.org/2000/svg" viewBox="0 0 100 100" id="basketball">
  <path fill="none" stroke="#000" stroke-miterlimit="10" stroke-width="3" d="M26.545 11.595C47.741-1.35 75.46 5.349 88.405 26.545c12.945 21.196 6.246 48.915-14.95 61.86s-48.915 6.246-61.86-14.95c-12.945-21.196-6.246-48.914 14.95-61.86z" clip-rule="evenodd"></path>
  <path fill="none" stroke="#000" stroke-linecap="round" stroke-linejoin="round" stroke-miterlimit="10" stroke-width="3" d="M34.051 7.927a45.21 45.21 0 0 0-7.506 3.668C5.349 24.541-1.35 52.259 11.595 73.455c12.945 21.196 40.664 27.895 61.86 14.95a45.134 45.134 0 0 0 6.709-5.018c14.819-33.398-9.536-67.504-46.113-75.46zM10.534 71.624c32.715-6.043 65.522-22.293 76.788-46.767"></path>
  <path fill="none" stroke="#000" stroke-linejoin="round" stroke-miterlimit="10" stroke-width="3" d="M12.287 25.445c-9.145 14.079-10.019 32.737-.692 48.01 8.317 13.618 22.733 21.239 37.598 21.524 43.191-46.25 25.57-67.217-36.906-69.534zM94.69 44.774a44.77 44.77 0 0 0-6.285-18.229A44.756 44.756 0 0 0 70.404 9.899l-.069.04c5.676 13.52 13.533 25.869 24.355 34.835z"></path>
</svg>
