<svg xmlns="http://www.w3.org/2000/svg"  viewBox="0 0 50 50" width="50px" height="50px"><path d="M18.95,18c-2.83,0-5.5,1.15-7.5,3.24L1.777,31.307C1.166,31.943,1.616,33,2.498,33h14.006 c0.272,0,0.533-0.111,0.721-0.307l3.325-3.463c0.16-0.18,0.38-0.27,0.62-0.27h9.26l-2.254,2.347 C27.565,31.943,28.016,33,28.897,33h6.127c0.272,0,0.533-0.111,0.721-0.307l12.48-13c0.61-0.636,0.16-1.693-0.721-1.693H18.95z M4.85,31l8.04-8.38c1.62-1.69,3.78-2.62,6.06-2.62h19.56l-2.84,2.96H19.45c-0.47,0-0.93,0.08-1.37,0.23 c-0.91,0.25-1.74,0.74-2.4,1.44L9.56,31H4.85z M21.17,26.96c-0.78,0-1.54,0.33-2.07,0.9L16.08,31h-3.4l5.12-5.33 c0.25-0.26,0.56-0.46,0.9-0.57c0.25-0.07,0.5-0.1,0.75-0.1h14.26l-1.88,1.96H21.17z M34.59,31h-3.35L41.8,20h3.35L34.59,31z"/></svg>