<svg xmlns="http://www.w3.org/2000/svg" enable-background="new 0 0 50 50" viewBox="0 0 50 50" id="sleeping">
  <path d="M47.99995 22.04346c-.55273 0-1 .44775-1 1v9.66309h-1.77344v-3.25293c0-1.6543-1.3457-3-3-3h-7.46289c-1.6543 0-3 1.3457-3 3v3.25293H11.81049c-3.48047 0-6.3125 2.83154-6.3125 6.3125v3.2168H1.99995c-.55273 0-1 .44775-1 1s.44727 1 1 1c.37939 0 5.43359 0 5.23926 0V48c0 .55225.44727 1 1 1s1-.44775 1-1v-3.76416h31.52051V48c0 .55225.44727 1 1 1s1-.44775 1-1v-3.76416h5.24023c.55273 0 1-.44775 1-1v-9.5293V23.04346C48.99995 22.49121 48.55268 22.04346 47.99995 22.04346zM33.76362 29.45361c0-.55127.44824-1 1-1h7.46289c.55176 0 1 .44873 1 1v3.25293h-9.46289V29.45361zM46.99995 42.23584H7.49799v-3.2168c0-2.37793 1.93457-4.3125 4.3125-4.3125 14.50757 0 28.57764 0 35.18945 0V42.23584zM25.52338 18.27344c-.55273 0-1 .44775-1 1s.44727 1 1 1h1.7832l-2.56543 3.21875c-.23926.30029-.28516.71094-.11914 1.05713.16699.34619.51758.56592.90137.56592h3.8584c.55273 0 1-.44775 1-1s-.44727-1-1-1h-1.7832l2.56543-3.21875c.23926-.30029.28516-.71094.11914-1.05713-.16699-.34619-.51758-.56592-.90137-.56592H25.52338zM33.51948 11.69531h3.87695l-4.65918 5.84619c-.23926.30029-.28516.71094-.11914 1.05713.16699.34619.51758.56592.90137.56592h5.95215c.55273 0 1-.44775 1-1s-.44727-1-1-1h-3.87695l4.65918-5.84619c.23926-.30029.28516-.71094.11914-1.05713-.16699-.34619-.51758-.56592-.90137-.56592h-5.95215c-.55273 0-1 .44775-1 1S32.96674 11.69531 33.51948 11.69531zM22.02338 3h4.55664l-5.33887 6.69922c-.23926.30029-.28516.71094-.11914 1.05713.16699.34619.51758.56592.90137.56592h6.63184c.55273 0 1-.44775 1-1s-.44727-1-1-1h-4.55664l5.33887-6.69922c.23926-.30029.28516-.71094.11914-1.05713C29.3896 1.21973 29.03901 1 28.65522 1h-6.63184c-.55273 0-1 .44775-1 1S21.47065 3 22.02338 3z"></path>
</svg>
